<svg width="30" height="30" viewBox="0 0 30 30" fill="none" xmlns="http://www.w3.org/2000/svg">
<path d="M9.78628 20.2137C7.09804 17.5202 5.03067 14.272 3.72878 10.6962C3.01253 8.74116 3.66878 6.59366 5.14128 5.12116L6.05253 4.21116C6.29751 3.96568 6.5885 3.77092 6.90885 3.63805C7.22919 3.50517 7.57259 3.43677 7.9194 3.43677C8.26621 3.43677 8.60962 3.50517 8.92996 3.63805C9.2503 3.77092 9.5413 3.96568 9.78628 4.21116L11.92 6.34491C12.1655 6.58989 12.3603 6.88088 12.4931 7.20122C12.626 7.52157 12.6944 7.86497 12.6944 8.21178C12.6944 8.55859 12.626 8.90199 12.4931 9.22234C12.3603 9.54268 12.1655 9.83367 11.92 10.0787L11.395 10.6037C11.1849 10.8138 11.0182 11.0632 10.9045 11.3377C10.7907 11.6123 10.7322 11.9065 10.7322 12.2037C10.7322 12.5008 10.7907 12.7951 10.9045 13.0696C11.0182 13.3441 11.1849 13.5936 11.395 13.8037L16.195 18.6049C16.4051 18.8151 16.6546 18.9817 16.9291 19.0955C17.2036 19.2092 17.4979 19.2677 17.795 19.2677C18.0922 19.2677 18.3864 19.2092 18.661 19.0955C18.9355 18.9817 19.1849 18.8151 19.395 18.6049L19.9213 18.0799C20.1663 17.8344 20.4573 17.6397 20.7776 17.5068C21.0979 17.3739 21.4413 17.3055 21.7882 17.3055C22.135 17.3055 22.4784 17.3739 22.7987 17.5068C23.1191 17.6397 23.41 17.8344 23.655 18.0799L25.7888 20.2137C26.0343 20.4586 26.229 20.7496 26.3619 21.07C26.4948 21.3903 26.5632 21.7337 26.5632 22.0805C26.5632 22.4273 26.4948 22.7707 26.3619 23.0911C26.229 23.4114 26.0343 23.7024 25.7888 23.9474L24.8788 24.8574C23.4063 26.3312 21.2588 26.9874 19.3038 26.2712C15.728 24.9693 12.4797 22.9019 9.78628 20.2137Z" stroke="#009900" stroke-width="2" stroke-linejoin="round"/>
</svg>
