<svg width="35" height="35" viewBox="0 0 35 35" fill="none" xmlns="http://www.w3.org/2000/svg">
<path fill-rule="evenodd" clip-rule="evenodd" d="M22.9323 32.0834V20.7886H26.7239L27.2912 16.3874H22.9308V13.5772C22.9308 12.3026 23.2852 11.4334 25.1139 11.4334H27.4443V7.49591C26.3158 7.37466 25.1814 7.31624 24.0464 7.32091C20.6864 7.32091 18.3866 9.37279 18.3866 13.1397V16.3874H14.5833V20.7886H18.3852V32.0834H4.52663C3.63704 32.0834 2.91663 31.363 2.91663 30.4734V4.52675C2.91663 3.63716 3.63704 2.91675 4.52663 2.91675H30.4733C31.3629 2.91675 32.0833 3.63716 32.0833 4.52675V30.4734C32.0833 31.363 31.3629 32.0834 30.4733 32.0834H22.9323Z" fill="#009900"/>
</svg>
