<svg width="35" height="35" viewBox="0 0 35 35" fill="none" xmlns="http://www.w3.org/2000/svg">
<path fill-rule="evenodd" clip-rule="evenodd" d="M17.5 10.2083C15.5662 10.2083 13.7115 10.9765 12.3441 12.3439C10.9766 13.7114 10.2084 15.566 10.2084 17.4999C10.2084 19.4338 10.9766 21.2885 12.3441 22.6559C13.7115 24.0234 15.5662 24.7916 17.5 24.7916C19.4339 24.7916 21.2886 24.0234 22.656 22.6559C24.0235 21.2885 24.7917 19.4338 24.7917 17.4999C24.7917 15.566 24.0235 13.7114 22.656 12.3439C21.2886 10.9765 19.4339 10.2083 17.5 10.2083ZM13.125 17.4999C13.125 18.6602 13.586 19.773 14.4064 20.5935C15.2269 21.414 16.3397 21.8749 17.5 21.8749C18.6604 21.8749 19.7732 21.414 20.5936 20.5935C21.4141 19.773 21.875 18.6602 21.875 17.4999C21.875 16.3396 21.4141 15.2268 20.5936 14.4063C19.7732 13.5859 18.6604 13.1249 17.5 13.1249C16.3397 13.1249 15.2269 13.5859 14.4064 14.4063C13.586 15.2268 13.125 16.3396 13.125 17.4999Z" fill="#009900"/>
<path d="M26.2501 7.2915C25.8633 7.2915 25.4924 7.44515 25.2189 7.71864C24.9454 7.99213 24.7917 8.36306 24.7917 8.74984C24.7917 9.13661 24.9454 9.50754 25.2189 9.78103C25.4924 10.0545 25.8633 10.2082 26.2501 10.2082C26.6369 10.2082 27.0078 10.0545 27.2813 9.78103C27.5548 9.50754 27.7084 9.13661 27.7084 8.74984C27.7084 8.36306 27.5548 7.99213 27.2813 7.71864C27.0078 7.44515 26.6369 7.2915 26.2501 7.2915Z" fill="#009900"/>
<path fill-rule="evenodd" clip-rule="evenodd" d="M7.29171 1.45825C5.74461 1.45825 4.26088 2.07283 3.16692 3.1668C2.07296 4.26076 1.45837 5.74449 1.45837 7.29158V27.7083C1.45837 29.2553 2.07296 30.7391 3.16692 31.833C4.26088 32.927 5.74461 33.5416 7.29171 33.5416H27.7084C29.2555 33.5416 30.7392 32.927 31.8332 31.833C32.9271 30.7391 33.5417 29.2553 33.5417 27.7083V7.29158C33.5417 5.74449 32.9271 4.26076 31.8332 3.1668C30.7392 2.07283 29.2555 1.45825 27.7084 1.45825H7.29171ZM27.7084 4.37492H7.29171C6.51816 4.37492 5.77629 4.68221 5.22931 5.22919C4.68233 5.77617 4.37504 6.51804 4.37504 7.29158V27.7083C4.37504 28.4818 4.68233 29.2237 5.22931 29.7706C5.77629 30.3176 6.51816 30.6249 7.29171 30.6249H27.7084C28.4819 30.6249 29.2238 30.3176 29.7708 29.7706C30.3177 29.2237 30.625 28.4818 30.625 27.7083V7.29158C30.625 6.51804 30.3177 5.77617 29.7708 5.22919C29.2238 4.68221 28.4819 4.37492 27.7084 4.37492Z" fill="#009900"/>
</svg>
