<svg width="108" height="95" viewBox="0 0 108 95" fill="none" xmlns="http://www.w3.org/2000/svg">
<rect x="13" width="95" height="95" rx="47.5" fill="white"/>
<path d="M58.0336 22.7277H49.8392L50.4074 20.4408C51.0055 18.0343 50.7065 15.5083 49.5551 13.3111C48.4186 11.1139 46.4747 9.42491 44.142 8.58788C39.5514 6.97361 34.4673 8.79714 31.9551 12.9673C29.0542 8.12452 22.7589 6.5551 17.9141 9.4548C17.7496 9.54448 17.6 9.64911 17.4505 9.75374C14.0262 12.0705 12.4113 16.3603 13.4281 20.4408L14.0113 22.7277H5.96644C2.66178 22.7277 0.000102034 25.448 0.000102034 28.7363V36.3294C-0.0148512 38.8853 1.61505 41.1572 4.03747 41.9793V69.4518C4.03747 73.5771 7.35709 77 11.4842 77H52.5158C56.6429 77 59.9625 73.5771 59.9625 69.4518V41.9793C62.3849 41.1572 64.0148 38.8853 63.9999 36.3294V28.7513C63.9999 25.448 61.3382 22.7277 58.0336 22.7277ZM33.4355 18.0792C33.6 14.1631 36.785 11.0242 40.6579 10.9943C41.5102 10.9794 42.3476 11.1289 43.1401 11.4129C46.4598 12.5937 48.3738 16.2258 47.5065 19.7233L46.7588 22.7426H33.3458L33.4355 18.0792ZM19.1253 12.22C20.3215 11.4129 21.7421 10.9794 23.1926 10.9794C27.1252 10.9794 30.3103 14.1481 30.4 18.0792L30.3551 22.7127H17.0916L16.329 19.7084C15.6262 16.8386 16.7477 13.8343 19.1253 12.22ZM24.2243 73.9957H11.4842C9.0169 73.9957 7.02812 71.918 7.02812 69.4369V42.3082H24.2243V73.9957ZM24.2243 39.3188H5.96644C4.32158 39.3188 2.99075 37.9736 2.99075 36.3294V28.7513C2.97579 27.0922 4.30663 25.747 5.96644 25.732H24.2243V39.3188ZM36.785 73.9957H27.215V42.3082H36.785V73.9957ZM36.785 39.3188H27.215V25.7171H36.785V39.3188ZM56.9719 69.4369C56.9719 71.9031 54.9981 73.9957 52.5158 73.9957H39.7757V42.3082H56.9719V69.4369ZM61.0093 36.3294C61.0093 37.9736 59.6934 39.3188 58.0336 39.3188H39.7757V25.7171H58.0336C59.6934 25.732 61.0093 27.0922 61.0093 28.7363V36.3294Z" fill="#1C1F25"/>
</svg>
