<svg width="116" height="95" viewBox="0 0 116 95" fill="none" xmlns="http://www.w3.org/2000/svg">
<rect x="21" width="95" height="95" rx="47.5" fill="white"/>
<path fill-rule="evenodd" clip-rule="evenodd" d="M60.3571 52.0804C60.3571 48.2489 57.2464 45.1429 53.4161 45.1429C51.0831 45.1429 48.75 45.1429 48.75 45.1429C47.4616 45.1429 46.4286 46.1817 46.4286 47.4643V68.3571C46.4286 69.6397 47.4616 70.6786 48.75 70.6786C48.75 70.6786 51.0831 70.6786 53.4161 70.6786C57.2464 70.6786 60.3571 67.5725 60.3571 63.741V63.7143H62.6786C63.967 63.7143 65 62.6754 65 61.3929V40.5C65 22.5507 50.4446 8 32.5 8C14.5554 8 0 22.5507 0 40.5V61.3929C0 62.6754 1.03304 63.7143 2.32143 63.7143H4.64286V63.741C4.64286 67.2208 7.20814 70.1029 10.551 70.602C11.1662 74.5913 14.6249 77.6429 18.7919 77.6429C24.5955 77.6429 32.5 77.6429 32.5 77.6429C33.7768 77.6429 34.8214 76.6029 34.8214 75.3214C34.8214 74.04 33.7768 73 32.5 73C32.5 73 24.5955 73 18.7919 73C17.2365 73 15.9018 72.0389 15.3562 70.6786H16.25C17.5384 70.6786 18.5714 69.6397 18.5714 68.3571V47.4643C18.5714 46.1817 17.5384 45.1429 16.25 45.1429H11.5839C7.75355 45.1429 4.64286 48.2478 4.64286 52.0781V40.5C4.64286 25.1147 17.1089 12.6429 32.5 12.6429C47.8911 12.6429 60.3571 25.1147 60.3571 40.5M13.9286 49.7857V66.0357H11.5839C10.3187 66.0357 9.28571 65.0085 9.28571 63.741V52.0804C9.28571 50.8129 10.3187 49.7857 11.5839 49.7857H13.9286ZM51.0714 49.7857H53.4161C54.6929 49.7857 55.7143 50.8129 55.7143 52.0804V63.741C55.7143 65.0085 54.6929 66.0357 53.4161 66.0357H51.0714V49.7857Z" fill="#1C1F25"/>
</svg>
