<svg width="131" height="95" viewBox="0 0 131 95" fill="none" xmlns="http://www.w3.org/2000/svg">
<rect x="36" width="95" height="95" rx="47.5" fill="white"/>
<path d="M1.55273 16.3001H13.3328C13.7446 16.3001 14.1396 16.1349 14.4308 15.8408C14.722 15.5466 14.8855 15.1477 14.8855 14.7317C14.8855 14.3158 14.722 13.9169 14.4308 13.6227C14.1396 13.3286 13.7446 13.1634 13.3328 13.1634H1.55273C1.14092 13.1634 0.74598 13.3286 0.454785 13.6227C0.163591 13.9169 0 14.3158 0 14.7317C0 15.1477 0.163591 15.5466 0.454785 15.8408C0.74598 16.1349 1.14092 16.3001 1.55273 16.3001ZM3.10547 21.0053C3.10547 21.4213 3.26906 21.8202 3.56025 22.1143C3.85145 22.4085 4.24639 22.5737 4.6582 22.5737H16.4383C16.8501 22.5737 17.245 22.4085 17.5362 22.1143C17.8274 21.8202 17.991 21.4213 17.991 21.0053C17.991 20.5893 17.8274 20.1904 17.5362 19.8963C17.245 19.6022 16.8501 19.4369 16.4383 19.4369H4.6582C4.24639 19.4369 3.85145 19.6022 3.56025 19.8963C3.26906 20.1904 3.10547 20.5893 3.10547 21.0053ZM104.447 73.8632H98.5746C100.556 72.0928 101.878 69.6915 102.323 67.0577C102.823 64.0625 102.165 60.9878 100.483 58.4696L101.37 57.9363C101.724 57.7236 101.98 57.3776 102.081 56.9745C102.183 56.5713 102.121 56.144 101.911 55.7866C100.489 53.3803 98.392 51.4552 95.885 50.2558C93.378 49.0563 90.5746 48.6368 87.8309 49.0504C86.507 45.8685 85.1441 41.3319 83.8241 36.9351C83.0545 34.3722 82.2651 31.7433 81.4751 29.354H82.3179C82.7297 29.354 83.1247 29.1887 83.4159 28.8946C83.707 28.6005 83.8706 28.2015 83.8706 27.7856V18.5651C83.8706 18.1491 83.707 17.7502 83.4159 17.4561C83.1247 17.1619 82.7297 16.9967 82.3179 16.9967H76.0314C74.6799 16.9985 73.3669 17.4515 72.2968 18.2854C71.2266 19.1192 70.4595 20.287 70.1147 21.6069H64.1737C63.7619 21.6069 63.3669 21.7722 63.0757 22.0663C62.7845 22.3604 62.621 22.7594 62.621 23.1753C62.621 23.5913 62.7845 23.9902 63.0757 24.2844C63.3669 24.5785 63.7619 24.7437 64.1737 24.7437H70.1147C70.3449 25.6265 70.7664 26.4466 71.3486 27.1448C71.3621 27.2369 71.3837 27.3276 71.4132 27.4158C72.2781 29.9723 73.8013 35.7166 73.9106 36.2381C75.6091 44.3405 75.8467 54.3961 67.3336 56.2897C65.474 56.6934 63.5416 56.592 61.7334 55.9959C59.9252 55.3998 58.3057 54.3303 57.0398 52.8963C53.8366 49.192 53.6238 43.4904 56.5212 39.0284C57.3208 38.5139 57.9335 37.7511 58.2672 36.8548C58.601 35.9584 58.6378 34.9769 58.372 34.0576C58.1063 33.1384 57.5524 32.3311 56.7936 31.7569C56.0348 31.1828 55.112 30.8729 54.1639 30.8738H48.5043C48.5305 30.7008 48.5443 30.5261 48.5457 30.351V11.6596C48.5446 10.6893 48.1626 9.75915 47.4833 9.07309C46.8041 8.38702 45.8832 8.00111 44.9227 8H24.7193C23.7588 8.00111 22.8379 8.38702 22.1587 9.07309C21.4794 9.75915 21.0974 10.6893 21.0963 11.6596V30.351C21.0974 31.3213 21.4794 32.2515 22.1587 32.9375C22.8379 33.6236 23.7588 34.0095 24.7193 34.0106H27.1374C26.8928 34.8177 26.8828 35.6787 27.1085 36.4913C27.3341 37.304 27.786 38.0341 28.4105 38.5949C27.8754 38.8451 27.3515 39.1191 26.8404 39.4161C21.5197 42.522 17.0182 48.5713 15.3719 54.828C14.3464 58.7249 14.5744 62.2651 16.0095 64.8113L16.013 64.818C16.0248 64.8391 16.0352 64.8615 16.0474 64.8826C16.053 64.8922 16.06 64.9006 16.0658 64.9102C16.0894 64.9493 16.1149 64.9872 16.1418 65.024C16.1509 65.0365 16.159 65.0497 16.1687 65.0618C16.2051 65.1084 16.2441 65.1529 16.2855 65.195C16.2975 65.2076 16.3103 65.2191 16.323 65.231C16.3561 65.2628 16.3906 65.2931 16.4265 65.322C16.4397 65.3324 16.4526 65.3429 16.4658 65.3529C16.5118 65.3877 16.5596 65.4198 16.6091 65.4491L16.6169 65.4539C16.6713 65.4852 16.7275 65.5132 16.7853 65.5376C16.7977 65.5428 16.8101 65.547 16.8225 65.552C16.867 65.5696 16.9125 65.5852 16.959 65.5988C16.9768 65.6041 16.9948 65.6089 17.0128 65.6135C17.0294 65.6177 17.0455 65.6233 17.0623 65.6269C17.0913 65.6331 17.1202 65.6365 17.1492 65.6411C17.1658 65.6436 17.1824 65.6472 17.1989 65.6492C17.2628 65.6577 17.3271 65.6622 17.3915 65.6626C17.3946 65.6626 17.3977 65.6618 17.4006 65.6618H17.4095L22.9144 65.5894C22.992 67.1673 23.3836 68.7132 24.0659 70.1348C24.7482 71.5563 25.7071 72.8244 26.8855 73.8632H1.55273C1.14092 73.8632 0.74598 74.0285 0.454785 74.3226C0.163591 74.6167 0 75.0156 0 75.4316C0 75.8476 0.163591 76.2465 0.454785 76.5406C0.74598 76.8348 1.14092 77 1.55273 77H104.447C104.859 77 105.254 76.8348 105.545 76.5406C105.836 76.2465 106 75.8476 106 75.4316C106 75.0156 105.836 74.6167 105.545 74.3226C105.254 74.0285 104.859 73.8632 104.447 73.8632ZM89.8868 52.0304C91.5089 52.0289 93.1109 52.3935 94.5757 53.0975C96.0404 53.8016 97.3309 54.8274 98.3529 56.0998L97.6092 56.5469C97.4309 56.6132 97.2661 56.7122 97.1233 56.8389L79.2532 67.58C78.2552 65.142 78.1586 62.4227 78.9811 59.9187C79.8037 57.4147 81.4904 55.2931 83.7334 53.9413L84.3487 53.5714C86.0231 52.5621 87.9369 52.0296 89.8868 52.0304ZM93.1392 65.4675C93.0484 66.0027 92.778 66.49 92.3734 66.8476C91.9688 67.2051 91.4547 67.4111 90.9175 67.4308C90.3802 67.4506 89.8527 67.2829 89.4234 66.956C88.9941 66.6292 88.6894 66.163 88.5603 65.6359L92.4111 63.3213C92.7007 63.5888 92.9192 63.9255 93.0464 64.3005C93.1737 64.6755 93.2056 65.0768 93.1392 65.4675ZM73.0199 23.1753C73.0209 22.3689 73.3384 21.5957 73.903 21.0255C74.4676 20.4552 75.233 20.1344 76.0314 20.1335H80.7652V26.2172H76.0314C75.233 26.2162 74.4676 25.8955 73.903 25.3252C73.3384 24.7549 73.0209 23.9818 73.0199 23.1753ZM54.1639 34.0106C54.5027 34.0082 54.8286 34.1418 55.0699 34.3821C55.3112 34.6224 55.448 34.9497 55.4504 35.2919C55.4528 35.6341 55.3205 35.9633 55.0826 36.207C54.8447 36.4507 54.5208 36.5889 54.1819 36.5913H39.4053C38.4401 36.5357 37.4726 36.5361 36.5075 36.5924H31.3298C30.9909 36.5924 30.6658 36.4564 30.4261 36.2143C30.1865 35.9722 30.0518 35.6439 30.0518 35.3015C30.0518 34.9591 30.1865 34.6308 30.4261 34.3887C30.6658 34.1466 30.9909 34.0106 31.3298 34.0106H54.1639ZM24.7193 30.8738C24.5821 30.8737 24.4506 30.8185 24.3535 30.7205C24.2565 30.6225 24.2019 30.4896 24.2017 30.351V11.6596C24.2019 11.521 24.2565 11.3881 24.3535 11.2901C24.4506 11.1921 24.5821 11.1369 24.7193 11.1368H44.9225C45.0597 11.1369 45.1912 11.1921 45.2883 11.2901C45.3853 11.3881 45.4399 11.521 45.44 11.6596V30.351C45.4399 30.4896 45.3853 30.6225 45.2883 30.7205C45.1912 30.8185 45.0597 30.8737 44.9225 30.8738H24.7193ZM18.373 55.6335C19.8181 50.1416 23.7517 44.8421 28.3941 42.1322C30.9069 40.6997 33.715 39.8769 36.5967 39.729H52.6333C50.4268 44.9028 51.1543 50.8583 54.701 54.9597C56.3357 56.8142 58.4279 58.1978 60.7643 58.9696C63.1008 59.7414 65.5981 59.8738 68.0017 59.3533C76.5838 57.444 79.7611 49.0042 76.9488 35.5884C76.843 35.0836 76.0318 32.0022 75.2459 29.3013C75.5064 29.3358 75.7687 29.3534 76.0314 29.354H78.1961C79.0812 31.9468 79.9797 34.9395 80.8523 37.8454C82.1417 42.1412 83.4719 46.568 84.8046 49.8668C84.0972 50.1466 83.4136 50.484 82.7605 50.8758L82.145 51.246C80.2973 52.3569 78.7288 53.884 77.5618 55.7083C76.3949 57.5326 75.6611 59.6046 75.4178 61.7626L51.6274 62.0752C50.0591 54.7953 45.0272 48.9634 38.7817 47.3474C34.5283 46.2464 29.6961 47.1094 25.5236 49.7146C22.2939 51.7558 19.6664 54.6361 17.9161 58.0543C18.0084 57.237 18.1611 56.4279 18.373 55.6337V55.6335ZM19.4241 62.4982C20.7876 58.2644 23.5337 54.6446 27.1565 52.3827C30.615 50.2236 34.5715 49.4963 38.0111 50.3859C42.9563 51.6657 46.9911 56.2726 48.4492 62.117L19.4241 62.4982ZM36.8629 65.4062C36.7704 65.9503 36.4922 66.4444 36.0766 66.8029C35.6611 67.1613 35.1344 67.3615 34.5879 67.3687C34.0415 67.3759 33.5098 67.1896 33.0851 66.8422C32.6605 66.4947 32.3697 66.0081 32.2631 65.4667L36.8629 65.4062ZM34.5585 73.6445C32.3842 73.6417 30.2923 72.8036 28.7073 71.3001C27.1224 69.7966 26.163 67.7404 26.0238 65.5487L29.1359 65.5077C29.261 66.886 29.896 68.1661 30.9142 69.0924C31.9324 70.0187 33.2589 70.5232 34.6291 70.5052C35.9993 70.4872 37.3124 69.948 38.3064 68.9953C39.3005 68.0425 39.9023 66.7462 39.9918 65.365L43.1039 65.3243C43.0199 67.5577 42.0831 69.6715 40.49 71.2226C38.8969 72.7737 36.7712 73.6417 34.5585 73.6445ZM42.228 73.8632C43.4448 72.7905 44.4274 71.4738 45.113 69.9966C45.7986 68.5195 46.1724 66.9144 46.2104 65.2835L50.2492 65.2304C50.3193 65.2343 50.3895 65.2334 50.4595 65.2277L75.4051 64.9C75.6178 66.9109 76.2585 68.8515 77.2833 70.5888C77.4939 70.9463 77.8364 71.2046 78.2356 71.3069C78.6347 71.4093 79.0577 71.3473 79.4116 71.1346L80.4832 70.4908C81.1396 71.7659 82.0215 72.9088 83.0854 73.8632H42.228ZM90.8364 73.7085C89.2382 73.7084 87.6719 73.2563 86.3149 72.4035C84.9579 71.5507 83.8643 70.3312 83.158 68.8831L85.8438 67.2687C86.1527 67.9838 86.6087 68.6244 87.1815 69.1478C87.7543 69.6713 88.4308 70.0656 89.1661 70.3046C89.9014 70.5437 90.6787 70.6219 91.4462 70.5341C92.2138 70.4464 92.954 70.1946 93.6179 69.7956C94.2817 69.3966 94.8538 68.8595 95.2963 68.22C95.7388 67.5804 96.0414 66.8531 96.1842 66.0863C96.3269 65.3195 96.3065 64.5308 96.1243 63.7726C95.942 63.0144 95.6021 62.304 95.1271 61.6887L97.8113 60.0756C98.4653 60.9998 98.9304 62.0464 99.1796 63.1542C99.4287 64.262 99.4569 65.4088 99.2624 66.5277C98.9193 68.535 97.8862 70.3557 96.3449 71.6692C94.8035 72.9827 92.853 73.7049 90.8364 73.7085ZM39.4792 19.4369H36.3737V16.3001C36.3737 15.8842 36.2101 15.4852 35.9189 15.1911C35.6278 14.897 35.2328 14.7317 34.821 14.7317C34.4092 14.7317 34.0142 14.897 33.7231 15.1911C33.4319 15.4852 33.2683 15.8842 33.2683 16.3001V19.4369H30.1628C29.751 19.4369 29.356 19.6022 29.0648 19.8963C28.7737 20.1904 28.6101 20.5893 28.6101 21.0053C28.6101 21.4213 28.7737 21.8202 29.0648 22.1143C29.356 22.4085 29.751 22.5737 30.1628 22.5737H33.2683V25.7105C33.2683 26.1264 33.4319 26.5254 33.7231 26.8195C34.0142 27.1136 34.4092 27.2789 34.821 27.2789C35.2328 27.2789 35.6278 27.1136 35.9189 26.8195C36.2101 26.5254 36.3737 26.1264 36.3737 25.7105V22.5737H39.4792C39.891 22.5737 40.286 22.4085 40.5772 22.1143C40.8683 21.8202 41.0319 21.4213 41.0319 21.0053C41.0319 20.5893 40.8683 20.1904 40.5772 19.8963C40.286 19.6022 39.891 19.4369 39.4792 19.4369ZM1.55273 28.8473H13.3328C13.7446 28.8473 14.1396 28.682 14.4308 28.3879C14.722 28.0938 14.8855 27.6948 14.8855 27.2789C14.8855 26.8629 14.722 26.464 14.4308 26.1699C14.1396 25.8757 13.7446 25.7105 13.3328 25.7105H1.55273C1.14092 25.7105 0.74598 25.8757 0.454785 26.1699C0.163591 26.464 0 26.8629 0 27.2789C0 27.6948 0.163591 28.0938 0.454785 28.3879C0.74598 28.682 1.14092 28.8473 1.55273 28.8473Z" fill="#1C1F25"/>
</svg>
