<svg width="114" height="95" viewBox="0 0 114 95" fill="none" xmlns="http://www.w3.org/2000/svg">
<rect x="19" width="95" height="95" rx="47.5" fill="white"/>
<path d="M54.3825 7.78056C54.1465 7.5413 53.8655 7.35099 53.5557 7.22057C53.246 7.09014 52.9135 7.02215 52.5774 7.02051C51.8769 7.02611 51.2069 7.30775 50.7129 7.80431L45.155 13.386L39.5852 7.78056C39.1055 7.30167 38.4578 7.02896 37.7801 7.02051C37.4346 7.02093 37.0927 7.0905 36.7745 7.22512C36.4563 7.35973 36.1683 7.55666 35.9274 7.80431L22.9115 20.7965C21.142 20.8915 19.4912 20.9865 17.9355 21.0934L16.8548 21.1647H16.2135L15.3584 21.2359L14.6934 21.2953H14.1115L13.387 21.3547H12.9357L12.1876 21.4259H12.0451L10.2993 21.6159H10.1924L9.45612 21.711H9.20673L8.5298 21.806H8.31604C7.57973 21.9128 6.90281 22.0197 6.28526 22.1385H6.17838L5.66772 22.2454H5.46583L5.00267 22.3404H4.83641C4.49201 22.4235 4.17136 22.4948 3.88634 22.5779L3.11441 22.8273H2.9719L2.75813 22.9104C1.77027 23.2433 0.930002 23.9113 0.382959 24.7987C0.332296 24.9066 0.288661 25.0177 0.252324 25.1312C0.248221 25.1627 0.248221 25.1947 0.252324 25.2262C0.219087 25.3276 0.191337 25.4306 0.169193 25.535C0.169193 25.5944 0.169193 25.6419 0.169193 25.6894C0.0911325 25.8993 0.043154 26.1192 0.0266827 26.3425C0.0266827 26.4138 0.0266827 26.4851 0.0266827 26.5563C0.0207892 26.6274 0.0207892 26.6989 0.0266827 26.7701V71.2808C-0.00889424 71.5528 -0.00889424 71.8283 0.0266827 72.1003C0.299828 73.8341 1.27365 74.7723 6.08337 75.4017C11.5344 76.1143 22.0564 76.4825 39.2052 76.53H43.1361C57.019 76.53 63.4913 76.3162 65.6171 76.2212H65.724C66.4251 76.2018 67.0906 75.9075 67.5766 75.4017C68.0591 74.9022 68.3238 74.2317 68.3129 73.5372V39.4773L75.2247 32.5536C75.7026 32.0672 75.9705 31.4126 75.9705 30.7307C75.9705 30.0488 75.7026 29.3941 75.2247 28.9077L54.3825 7.78056ZM37.6019 9.47881C37.6216 9.45333 37.6468 9.43262 37.6755 9.41823C37.7043 9.40383 37.736 9.39613 37.7682 9.39568C37.8071 9.38508 37.8481 9.38508 37.8869 9.39568L56.7577 28.3971C55.6651 28.4802 54.5488 28.5515 53.3968 28.6108C53.4025 28.4486 53.3749 28.2869 53.3157 28.1357C53.2564 27.9846 53.1669 27.8472 53.0524 27.732L40.9034 15.5711C40.7934 15.4589 40.6623 15.3696 40.5175 15.3085C40.3728 15.2473 40.2174 15.2155 40.0602 15.2149C39.9031 15.2155 39.7477 15.2473 39.6029 15.3085C39.4582 15.3696 39.327 15.4589 39.217 15.5711C39.0087 15.7814 38.7609 15.9485 38.4878 16.0626C38.2147 16.1767 37.9217 16.2357 37.6257 16.2362C37.3538 16.2421 37.0836 16.1936 36.8307 16.0937C36.5778 15.9938 36.3474 15.8444 36.1531 15.6543C36.0421 15.5442 35.9105 15.4571 35.7658 15.398C35.6211 15.3389 35.4662 15.309 35.3099 15.3099C35.1536 15.309 34.9986 15.3389 34.854 15.398C34.7093 15.4571 34.5777 15.5442 34.4667 15.6543L21.4032 28.7177H18.4224L37.6019 9.47881ZM59.8335 28.2308L50.3329 18.5757L50.511 18.3976C51.1333 18.7395 51.8317 18.9192 52.5418 18.9201C53.2831 18.9105 54.01 18.7145 54.6557 18.3501L63.9545 27.7201C62.6838 27.9102 61.3061 28.0883 59.8335 28.2308ZM43.2073 28.979H39.217C33.6354 28.979 28.79 28.9077 24.6097 28.8246L35.4286 18.0294C36.0957 18.4045 36.8485 18.6009 37.6138 18.5995C38.4484 18.6128 39.2705 18.3949 39.989 17.9701L50.6772 28.7652V28.8365C48.2546 28.9315 45.7527 28.979 43.1717 28.979H43.2073ZM15.2159 28.5277C2.63937 27.9577 2.46124 26.9126 2.40186 26.5563C2.34248 26.2 2.77001 25.7725 3.87446 25.3687C4.07635 25.2975 4.30199 25.2143 4.56326 25.1431C9.00812 24.1709 13.5311 23.5986 18.078 23.433L20.3819 23.2904L15.2159 28.5277ZM65.9377 73.7747C65.8854 73.8227 65.8185 73.852 65.7477 73.8579H65.5933C63.4676 73.9529 57.0427 74.1667 43.2073 74.1667H39.217C22.4127 74.1667 11.6769 73.751 6.40402 73.0622C2.53249 72.5397 2.40186 72.0052 2.40186 71.744C2.39009 71.6772 2.39009 71.6089 2.40186 71.5421C2.40773 71.4829 2.40773 71.4232 2.40186 71.364V29.4659C4.4445 30.1666 8.26853 30.6535 15.5841 30.9266C17.4367 31.0098 19.515 31.081 21.807 31.1285C26.5574 31.2592 32.3528 31.3304 39.2052 31.3542H43.1361C45.9744 31.3542 48.7177 31.3542 51.3304 31.1879C54.1925 31.0691 56.9002 30.891 59.4298 30.6535C61.9593 30.416 64.0138 30.1309 65.9021 29.7984V46.0684H48.2783C47.2699 46.0282 46.2638 46.1921 45.3203 46.5503C44.3768 46.9085 43.5154 47.4536 42.7878 48.1528C42.0601 48.8521 41.4812 49.6911 41.0857 50.6196C40.6902 51.5481 40.4864 52.5469 40.4864 53.5561C40.4864 54.5653 40.6902 55.5641 41.0857 56.4926C41.4812 57.421 42.0601 58.2601 42.7878 58.9593C43.5154 59.6586 44.3768 60.2037 45.3203 60.5619C46.2638 60.9201 47.2699 61.084 48.2783 61.0438H65.9734V73.5729C65.9767 73.6469 65.9512 73.7193 65.9021 73.7747H65.9377ZM66.009 58.6687H48.2783C47.5862 58.702 46.8945 58.5945 46.2452 58.3526C45.5958 58.1108 45.0024 57.7396 44.5007 57.2615C43.9991 56.7835 43.5998 56.2086 43.3269 55.5717C43.054 54.9347 42.9133 54.249 42.9133 53.5561C42.9133 52.8632 43.054 52.1775 43.3269 51.5405C43.5998 50.9036 43.9991 50.3287 44.5007 49.8506C45.0024 49.3726 45.5958 49.0014 46.2452 48.7595C46.8945 48.5177 47.5862 48.4102 48.2783 48.4435H65.9734L66.009 58.6687ZM73.6214 30.8791L68.3842 36.1164V28.3733C68.3842 28.0583 68.259 27.7563 68.0363 27.5336C67.8136 27.3109 67.5116 27.1857 67.1966 27.1857H66.9828H66.8641L55.677 15.8918C55.567 15.7796 55.4358 15.6903 55.2911 15.6291C55.1464 15.568 54.9909 15.5362 54.8338 15.5355C54.6767 15.5362 54.5212 15.568 54.3765 15.6291C54.2318 15.6903 54.1006 15.7796 53.9906 15.8918C53.8032 16.083 53.5797 16.235 53.333 16.339C53.0863 16.4429 52.8214 16.4968 52.5536 16.4974C52.3106 16.4971 52.07 16.4487 51.8458 16.3549C51.6216 16.2612 51.4182 16.1239 51.2473 15.9512C51.1373 15.8389 51.0061 15.7497 50.8614 15.6885C50.7167 15.6274 50.5612 15.5955 50.4041 15.5949C50.247 15.5955 50.0915 15.6274 49.9468 15.6885C49.8021 15.7497 49.6709 15.8389 49.5609 15.9512L48.599 16.8419L46.8057 15.0248L52.3993 9.47881C52.4455 9.42897 52.5094 9.39914 52.5774 9.39568C52.6161 9.38377 52.6575 9.38377 52.6961 9.39568L73.6571 30.5704C73.6881 30.6209 73.6981 30.6816 73.6847 30.7394C73.6714 30.7971 73.6359 30.8473 73.5858 30.8791H73.6214Z" fill="#1C1F25"/>
<path d="M44.7037 53.562C44.7037 54.3587 44.9402 55.1376 45.3831 55.7999C45.826 56.4622 46.4554 56.9782 47.1918 57.2825C47.9281 57.5869 48.7382 57.6659 49.5194 57.5096C50.3007 57.3533 51.018 56.9687 51.5806 56.4045C52.1432 55.8403 52.5257 55.1218 52.6797 54.3401C52.8337 53.5583 52.7522 52.7485 52.4457 52.0131C52.1392 51.2776 51.6213 50.6497 50.9577 50.2088C50.2941 49.7678 49.5145 49.5337 48.7178 49.536C47.6521 49.5392 46.6311 49.9647 45.8787 50.7194C45.1263 51.4741 44.7037 52.4963 44.7037 53.562ZM48.7178 51.9112C49.0448 51.9089 49.3651 52.0037 49.6381 52.1836C49.9111 52.3636 50.1245 52.6206 50.2513 52.922C50.3781 53.2234 50.4125 53.5557 50.3501 53.8767C50.2878 54.1977 50.1315 54.4929 49.9011 54.725C49.6707 54.957 49.3766 55.1154 49.0561 55.1801C48.7356 55.2447 48.403 55.2127 48.1007 55.0882C47.7984 54.9636 47.5399 54.752 47.358 54.4803C47.176 54.2086 47.0789 53.8889 47.0789 53.562C47.0789 53.1262 47.2512 52.7081 47.5582 52.3989C47.8652 52.0897 48.282 51.9144 48.7178 51.9112ZM7.29476 36.0688H7.42539C7.71898 36.0706 8.00282 35.9636 8.22214 35.7684C8.44145 35.5732 8.58069 35.3037 8.61298 35.0119C8.63117 34.8566 8.61856 34.6994 8.57584 34.549C8.53313 34.3987 8.46117 34.2583 8.36408 34.1358C8.26699 34.0133 8.14669 33.9112 8.01006 33.8354C7.87344 33.7595 7.72318 33.7113 7.5679 33.6936L5.7984 33.468C5.48343 33.4302 5.16635 33.5191 4.91691 33.7151C4.66747 33.9111 4.5061 34.1981 4.4683 34.5131C4.43051 34.828 4.51938 35.1451 4.71537 35.3946C4.91136 35.644 5.19841 35.8054 5.51338 35.8432L7.29476 36.0688ZM31.3671 37.8264L34.8111 37.9333C35.1261 37.9333 35.4282 37.8082 35.6509 37.5855C35.8736 37.3628 35.9987 37.0607 35.9987 36.7457C35.9987 36.4308 35.8736 36.1287 35.6509 35.906C35.4282 35.6833 35.1261 35.5581 34.8111 35.5581L31.3909 35.4513C31.0759 35.4513 30.7739 35.5764 30.5511 35.7991C30.3284 36.0218 30.2033 36.3239 30.2033 36.6389C30.2032 36.9497 30.3251 37.2483 30.5427 37.4703C30.7603 37.6924 31.0563 37.8202 31.3671 37.8264ZM38.2551 38.0046H41.711C42.026 38.0046 42.328 37.8795 42.5508 37.6567C42.7735 37.434 42.8986 37.132 42.8986 36.817C42.8986 36.502 42.7735 36.2 42.5508 35.9772C42.328 35.7545 42.026 35.6294 41.711 35.6294H38.2789C37.9639 35.6294 37.6619 35.7545 37.4391 35.9772C37.2164 36.2 37.0913 36.502 37.0913 36.817C37.0913 37.132 37.2164 37.434 37.4391 37.6567C37.6619 37.8795 37.9639 38.0046 38.2789 38.0046H38.2551ZM45.155 37.9927C46.3426 37.9927 47.5302 37.9927 48.6109 37.8977C48.9259 37.8867 49.2236 37.751 49.4385 37.5205C49.6534 37.29 49.7679 36.9835 49.7569 36.6685C49.7459 36.3536 49.6102 36.0559 49.3797 35.841C49.1492 35.626 48.8427 35.5115 48.5278 35.5225C47.3402 35.5225 46.2595 35.5938 45.1194 35.6175C44.8044 35.6175 44.5024 35.7427 44.2796 35.9654C44.0569 36.1881 43.9318 36.4901 43.9318 36.8051C43.9318 37.1201 44.0569 37.4222 44.2796 37.6449C44.5024 37.8676 44.8044 37.9927 45.1194 37.9927H45.155ZM14.159 36.7339H14.2778C14.5927 36.7465 14.8998 36.6334 15.1314 36.4196C15.3631 36.2058 15.5003 35.9087 15.5129 35.5938C15.5255 35.2788 15.4124 34.9717 15.1986 34.7401C14.9848 34.5085 14.6877 34.3713 14.3728 34.3587C13.1258 34.2518 11.9976 34.1449 10.9644 34.038C10.8084 34.0232 10.6511 34.0393 10.5013 34.0853C10.3516 34.1313 10.2124 34.2063 10.0916 34.3061C9.97085 34.4059 9.87094 34.5285 9.79757 34.6669C9.7242 34.8053 9.67881 34.9568 9.66399 35.1128C9.64918 35.2688 9.66522 35.4261 9.71122 35.5759C9.75721 35.7256 9.83225 35.8648 9.93205 35.9856C10.0319 36.1064 10.1545 36.2063 10.2929 36.2796C10.4313 36.353 10.5828 36.3984 10.7388 36.4132L14.159 36.7339ZM52.0074 37.7433H52.0786C53.2662 37.6721 54.4538 37.5889 55.5345 37.4939C55.8495 37.4687 56.1415 37.3194 56.3464 37.0789C56.5513 36.8384 56.6523 36.5263 56.6271 36.2113C56.6019 35.8964 56.4526 35.6043 56.2121 35.3994C55.9716 35.1945 55.6595 35.0935 55.3445 35.1187L51.948 35.3563C51.633 35.3641 51.3341 35.4968 51.117 35.7251C50.8998 35.9534 50.7822 36.2586 50.7901 36.5735C50.798 36.8885 50.9307 37.1874 51.1589 37.4046C51.3872 37.6217 51.6924 37.7393 52.0074 37.7314V37.7433ZM27.9113 37.6721H27.9706C28.2856 37.6721 28.5877 37.5469 28.8104 37.3242C29.0331 37.1015 29.1582 36.7994 29.1582 36.4845C29.1582 36.1695 29.0331 35.8674 28.8104 35.6447C28.5877 35.422 28.2856 35.2969 27.9706 35.2969L24.5504 35.1187C24.2373 35.1025 23.9304 35.2108 23.6968 35.4199C23.4632 35.6291 23.3218 35.9221 23.3034 36.2351C23.2871 36.5463 23.3938 36.8514 23.6004 37.0847C23.807 37.3179 24.097 37.4607 24.4079 37.482L27.9113 37.6721ZM21.0351 37.2683H21.1183C21.4193 37.269 21.7095 37.1554 21.9299 36.9503C22.1504 36.7453 22.2848 36.4642 22.3059 36.1638C22.3172 36.0078 22.2975 35.851 22.2481 35.7026C22.1986 35.5542 22.1203 35.417 22.0177 35.2989C21.9151 35.1808 21.7901 35.0842 21.65 35.0146C21.51 34.9449 21.3575 34.9036 21.2014 34.8931C20.0138 34.8218 18.8262 34.7387 17.793 34.6437C17.637 34.6307 17.4799 34.6487 17.3308 34.6967C17.1817 34.7446 17.0436 34.8216 16.9244 34.9232C16.8052 35.0247 16.7073 35.1488 16.6362 35.2884C16.5652 35.4279 16.5224 35.5802 16.5104 35.7363C16.4957 35.8924 16.5121 36.0498 16.5586 36.1995C16.605 36.3492 16.6807 36.4883 16.7812 36.6086C16.8816 36.729 17.0049 36.8282 17.1439 36.9007C17.283 36.9731 17.4349 37.0173 17.5911 37.0308L21.0351 37.2683ZM58.9904 37.1495L59.4298 37.0901V37.5295C59.4298 37.8445 59.5549 38.1466 59.7776 38.3693C60.0004 38.592 60.3024 38.7171 60.6174 38.7171C60.9324 38.7171 61.2344 38.592 61.4571 38.3693C61.6799 38.1466 61.805 37.8445 61.805 37.5295V35.7482C61.8065 35.5775 61.7712 35.4086 61.7015 35.2529C61.6318 35.0971 61.5294 34.9582 61.4012 34.8456C61.2731 34.7361 61.1233 34.6552 60.9615 34.6081C60.7997 34.561 60.6298 34.5488 60.463 34.5725L58.7173 34.7862C58.5613 34.8042 58.4104 34.8526 58.2732 34.9289C58.136 35.0051 58.0151 35.1077 57.9175 35.2306C57.8199 35.3536 57.7475 35.4946 57.7044 35.6455C57.6613 35.7965 57.6483 35.9544 57.6662 36.1104C57.6842 36.2663 57.7327 36.4172 57.8089 36.5545C57.8852 36.6917 57.9877 36.8125 58.1106 36.9101C58.2336 37.0077 58.3746 37.0801 58.5255 37.1233C58.6765 37.1664 58.8344 37.1793 58.9904 37.1614V37.1495ZM60.5936 66.8392C60.2787 66.8392 59.9766 66.9643 59.7539 67.187C59.5312 67.4097 59.4061 67.7118 59.4061 68.0268V68.6562H58.7885C58.4735 68.6562 58.1715 68.7813 57.9488 69.004C57.726 69.2267 57.6009 69.5288 57.6009 69.8438C57.6009 70.1587 57.726 70.4608 57.9488 70.6835C58.1715 70.9062 58.4735 71.0314 58.7885 71.0314H60.5699C60.8849 71.0314 61.1869 70.9062 61.4096 70.6835C61.6324 70.4608 61.7575 70.1587 61.7575 69.8438V68.0268C61.7575 67.7159 61.6357 67.4173 61.4181 67.1953C61.2005 66.9733 60.9045 66.8454 60.5936 66.8392ZM14.8241 68.3712C13.6365 68.288 12.5558 68.2049 11.4751 68.098C11.1601 68.0697 10.8468 68.1676 10.604 68.3703C10.3612 68.5729 10.2089 68.8638 10.1806 69.1787C10.1522 69.4937 10.2502 69.807 10.4529 70.0498C10.6555 70.2925 10.9463 70.4448 11.2613 70.4732L14.6697 70.7345H14.7528C15.0678 70.7439 15.3736 70.6278 15.603 70.4118C15.8324 70.1958 15.9666 69.8975 15.976 69.5825C15.9855 69.2675 15.8694 68.9617 15.6534 68.7323C15.4373 68.5029 15.139 68.3687 14.8241 68.3593V68.3712ZM41.8773 68.9887H38.4927C38.1777 68.9887 37.8756 69.1138 37.6529 69.3365C37.4302 69.5593 37.3051 69.8613 37.3051 70.1763C37.3051 70.4913 37.4302 70.7933 37.6529 71.016C37.8756 71.2388 38.1777 71.3639 38.4927 71.3639H41.8892C42.2041 71.3639 42.5062 71.2388 42.7289 71.016C42.9516 70.7933 43.0767 70.4913 43.0767 70.1763C43.0767 69.8613 42.9516 69.5593 42.7289 69.3365C42.5062 69.1138 42.2041 68.9887 41.8892 68.9887H41.8773ZM55.4514 68.7749L52.0668 68.8581C51.7518 68.8581 51.4497 68.9832 51.227 69.2059C51.0043 69.4286 50.8792 69.7307 50.8792 70.0457C50.8792 70.3606 51.0043 70.6627 51.227 70.8854C51.4497 71.1081 51.7518 71.2332 52.0668 71.2332L55.4633 71.1501C55.7782 71.1501 56.0803 71.025 56.303 70.8023C56.5257 70.5796 56.6509 70.2775 56.6509 69.9625C56.6509 69.6476 56.5257 69.3455 56.303 69.1228C56.0803 68.9001 55.7782 68.7749 55.4633 68.7749H55.4514ZM21.5695 68.7156L18.1968 68.5612C17.8818 68.5454 17.5735 68.6554 17.3397 68.867C17.1058 69.0786 16.9656 69.3744 16.9498 69.6894C16.9341 70.0044 17.0441 70.3127 17.2557 70.5465C17.4673 70.7804 17.7631 70.9206 18.078 70.9364L21.4745 71.0907C21.7895 71.0907 22.0916 70.9656 22.3143 70.7429C22.537 70.5202 22.6621 70.2181 22.6621 69.9032C22.6621 69.5882 22.537 69.2861 22.3143 69.0634C22.0916 68.8407 21.7895 68.7156 21.4745 68.7156H21.5695ZM48.6465 68.9175H45.2619C44.9469 68.9175 44.6449 69.0426 44.4221 69.2653C44.1994 69.488 44.0743 69.7901 44.0743 70.105C44.0743 70.42 44.1994 70.7221 44.4221 70.9448C44.6449 71.1675 44.9469 71.2926 45.2619 71.2926H48.6703C48.9852 71.2926 49.2873 71.1675 49.51 70.9448C49.7327 70.7221 49.8579 70.42 49.8579 70.105C49.8579 69.9471 49.8264 69.7907 49.7652 69.645C49.7041 69.4994 49.6145 69.3674 49.5017 69.2568C49.3889 69.1462 49.2551 69.0592 49.1083 69.0009C48.9614 68.9427 48.8045 68.9143 48.6465 68.9175ZM35.108 68.9887H31.7234C31.4084 68.9887 31.1064 69.1138 30.8837 69.3365C30.6609 69.5593 30.5358 69.8613 30.5358 70.1763C30.5358 70.4913 30.6609 70.7933 30.8837 71.016C31.1064 71.2388 31.4084 71.3639 31.7234 71.3639H35.1318C35.2877 71.3639 35.4422 71.3332 35.5863 71.2735C35.7303 71.2138 35.8613 71.1263 35.9715 71.016C36.0818 70.9058 36.1693 70.7748 36.229 70.6308C36.2887 70.4867 36.3194 70.3323 36.3194 70.1763C36.3194 70.0183 36.2879 69.8619 36.2268 69.7163C36.1656 69.5706 36.076 69.4386 35.9632 69.328C35.8504 69.2174 35.7166 69.1305 35.5698 69.0722C35.423 69.0139 35.266 68.9855 35.108 68.9887ZM28.3388 68.9056C27.1512 68.9056 26.0705 68.9056 24.9542 68.8343C24.6392 68.8249 24.3334 68.9409 24.104 69.157C23.8746 69.373 23.7404 69.6713 23.731 69.9863C23.7215 70.3013 23.8376 70.6071 24.0536 70.8365C24.2696 71.0659 24.5679 71.2 24.8829 71.2095L28.2913 71.2926C28.6063 71.2926 28.9083 71.1675 29.131 70.9448C29.3538 70.7221 29.4789 70.42 29.4789 70.105C29.4789 69.7901 29.3538 69.488 29.131 69.2653C28.9083 69.0426 28.6063 68.9175 28.2913 68.9175L28.3388 68.9056ZM8.13794 67.7536L6.39219 67.528C6.23624 67.5061 6.07751 67.5152 5.92507 67.5548C5.77263 67.5943 5.62946 67.6634 5.50374 67.7582C5.24985 67.9498 5.08244 68.2343 5.03834 68.5493C4.99425 68.8643 5.07708 69.1839 5.26862 69.4378C5.46015 69.6916 5.7447 69.8591 6.05967 69.9032L7.85292 70.1407H7.99543C8.3104 70.1596 8.61998 70.0526 8.85605 69.8432C9.09213 69.6339 9.23538 69.3393 9.25428 69.0243C9.27317 68.7094 9.16618 68.3998 8.95683 68.1637C8.74747 67.9276 8.45291 67.7844 8.13794 67.7655V67.7536ZM60.5936 39.6672C60.2787 39.6672 59.9766 39.7923 59.7539 40.015C59.5312 40.2378 59.4061 40.5398 59.4061 40.8548V43.5625C59.4061 43.8775 59.5312 44.1795 59.7539 44.4022C59.9766 44.625 60.2787 44.7501 60.5936 44.7501C60.9086 44.7501 61.2107 44.625 61.4334 44.4022C61.6561 44.1795 61.7812 43.8775 61.7812 43.5625V40.8548C61.7812 40.5398 61.6561 40.2378 61.4334 40.015C61.2107 39.7923 60.9086 39.6672 60.5936 39.6672ZM60.5936 61.495C60.2787 61.495 59.9766 61.6202 59.7539 61.8429C59.5312 62.0656 59.4061 62.3677 59.4061 62.6826V65.1291C59.4061 65.444 59.5312 65.7461 59.7539 65.9688C59.9766 66.1915 60.2787 66.3166 60.5936 66.3166C60.9086 66.3166 61.2107 66.1915 61.4334 65.9688C61.6561 65.7461 61.7812 65.444 61.7812 65.1291V62.6826C61.7812 62.3677 61.6561 62.0656 61.4334 61.8429C61.2107 61.6202 60.9086 61.495 60.5936 61.495Z" fill="#1C1F25"/>
</svg>
